<svg xmlns="http://www.w3.org/2000/svg" xmlns:xlink="http://www.w3.org/1999/xlink" width="654.02" height="722.031" viewBox="0 0 654.02 722.031">
  <defs>
    <linearGradient id="linear-gradient" x1="0.5" y1="1" x2="0.5" gradientUnits="objectBoundingBox">
      <stop offset="0" stop-color="gray" stop-opacity="0.251"/>
      <stop offset="0.54" stop-color="gray" stop-opacity="0.122"/>
      <stop offset="1" stop-color="gray" stop-opacity="0.102"/>
    </linearGradient>
    <linearGradient id="linear-gradient-2" x1="0.5" x2="0.5" y2="1" gradientUnits="objectBoundingBox">
      <stop offset="0" stop-color="#e0e0e0"/>
      <stop offset="0.31" stop-color="#fccc63"/>
      <stop offset="0.77" stop-color="#f55f44"/>
    </linearGradient>
    <linearGradient id="linear-gradient-3" x1="0.5" y1="0" x2="0.5" y2="1" xlink:href="#linear-gradient-2"/>
    <linearGradient id="linear-gradient-6" x1="0.5" x2="0.5" y2="0" xlink:href="#linear-gradient"/>
    <linearGradient id="linear-gradient-7" x1="0.5" x2="0.5" y2="1" gradientUnits="objectBoundingBox">
      <stop offset="0" stop-color="#f2f2f2"/>
      <stop offset="0.31" stop-color="#e6e6e6"/>
      <stop offset="0.77" stop-color="#ccc"/>
    </linearGradient>
    <linearGradient id="linear-gradient-11" x1="0.5" y1="0.001" x2="0.5" y2="1" xlink:href="#linear-gradient-7"/>
    <linearGradient id="linear-gradient-12" x1="0.5" y1="0" x2="0.5" y2="1" xlink:href="#linear-gradient-7"/>
    <linearGradient id="linear-gradient-13" x1="0.5" y1="0" x2="0.5" y2="1" xlink:href="#linear-gradient-7"/>
    <linearGradient id="linear-gradient-14" x1="0.5" y1="0" x2="0.5" y2="1" xlink:href="#linear-gradient-7"/>
    <linearGradient id="linear-gradient-15" x1="0.5" y1="0" x2="0.5" y2="1" xlink:href="#linear-gradient-7"/>
    <linearGradient id="linear-gradient-18" x1="0.5" x2="0.5" y2="0" xlink:href="#linear-gradient"/>
    <linearGradient id="linear-gradient-19" x1="0.5" x2="0.5" y2="1" gradientUnits="objectBoundingBox">
      <stop offset="0" stop-color="#f2f2f2"/>
      <stop offset="0.31" stop-color="#e0e0e0"/>
      <stop offset="0.77" stop-color="#b3b3b3"/>
    </linearGradient>
    <linearGradient id="linear-gradient-21" x1="0.5" y1="0" x2="0.5" y2="1" xlink:href="#linear-gradient-7"/>
    <linearGradient id="linear-gradient-23" x1="0.501" y1="1.001" x2="0.501" y2="0.001" xlink:href="#linear-gradient"/>
  </defs>
  <g id="Group_16" data-name="Group 16" transform="translate(-132.16 -48.019)">
    <g id="Group_2" data-name="Group 2" opacity="0.7">
      <path id="Path_4" data-name="Path 4" d="M722,411.58a150.57,150.57,0,0,0-17-70c-5.34-10.15-10.21-16.46-14-20.33A10,10,0,0,0,679.6,319a10.279,10.279,0,0,0-4,2.58c-5.07,5.25-9.65,12.19-13.65,19.58a151.15,151.15,0,0,0-17.87,71.92v15.06h-9.66v-175c0-36.68-8.21-72.87-24.29-105-7.62-15.21-14.57-24.66-19.92-30.47a13.81,13.81,0,0,0-20.76,0c-7.24,7.87-13.77,18.27-19.48,29.33-16.91,32.79-25.5,70-25.5,107.77V428.14h-8.35V412.36a151.15,151.15,0,0,0-17.87-71.92c-4-7.38-8.58-14.32-13.65-19.58a10,10,0,0,0-11.6-2.12l.35.19a10.31,10.31,0,0,0-3.26,2.28c-3.75,3.87-8.62,10.18-14,20.33a150.57,150.57,0,0,0-17,70V673.18h29.8l-3.25,21.51V759H490V694.69l-3.25-21.51h29.37V434.91h8.35v237.2h23.8l-3.42,22.57V759h24.37V694.69l-3.42-22.57h32.07l-3.42,22.57V759h24.37V694.69l-3.42-22.57h19V434.91h9.66V673.54h7.83v-.36h25.89l-3.25,21.51V759H698.9V694.69l-3.25-21.51H722Z" transform="translate(-137.41 -64.95)" fill="url(#linear-gradient)"/>
    </g>
    <path id="Path_5" data-name="Path 5" d="M357.44,617.2H334.37l4.12-28.01h14.83Z" fill="#535461"/>
    <g id="Group_3" data-name="Group 3" opacity="0.1">
      <path id="Path_6" data-name="Path 6" d="M337.34,600.31h17.13l-1.15-7.83H338.49Z"/>
    </g>
    <path id="Path_7" data-name="Path 7" d="M555.2,617.2H532.13l4.12-28.01h14.83Z" fill="#535461"/>
    <g id="Group_4" data-name="Group 4" opacity="0.1">
      <path id="Path_8" data-name="Path 8" d="M535.1,600.31h17.13l-1.15-7.83H536.25Z"/>
    </g>
    <path id="Path_9" data-name="Path 9" d="M432.43,617.2H409.35l4.12-28.01h14.84Z" fill="#535461"/>
    <g id="Group_5" data-name="Group 5" opacity="0.1">
      <path id="Path_10" data-name="Path 10" d="M412.32,600.31h17.14l-1.15-7.83H413.47Z"/>
    </g>
    <path id="Path_11" data-name="Path 11" d="M479.39,617.2H456.32l4.12-28.01h14.83Z" fill="#535461"/>
    <g id="Group_6" data-name="Group 6" opacity="0.1">
      <path id="Path_12" data-name="Path 12" d="M459.29,600.31h17.14l-1.16-7.83H460.44Z"/>
    </g>
    <rect id="Rectangle_2" data-name="Rectangle 2" width="164.8" height="6.59" transform="translate(357.44 357.64)" fill="#535461"/>
    <path id="Path_13" data-name="Path 13" d="M685.13,318.46a9.29,9.29,0,0,0-13.77,0c-4.8,5.11-9.13,11.87-12.92,19.06a150.58,150.58,0,0,0-16.91,70V661.21h72.93V406.47a150,150,0,0,0-16.11-68.21C693.29,328.38,688.68,322.23,685.13,318.46Z" transform="translate(-137.41 -64.95)" fill="#e0e0e0"/>
    <path id="Path_14" data-name="Path 14" d="M476,318.46a9.29,9.29,0,0,1,13.77,0c4.8,5.11,9.13,11.87,12.92,19.06a150.58,150.58,0,0,1,16.91,70V661.21H446.65V406.47a150,150,0,0,1,16.11-68.21C467.81,328.38,472.42,322.23,476,318.46Z" transform="translate(-137.41 -64.95)" fill="#e0e0e0"/>
    <path id="Path_15" data-name="Path 15" d="M309.65,346.93l17.3.08v21.34h-17.3Z" fill="#535461"/>
    <path id="Path_16" data-name="Path 16" d="M364.86,346.93l17.3.08v21.34h-17.3Z" fill="#535461"/>
    <path id="Path_17" data-name="Path 17" d="M504.11,346.93l17.31.08v21.34H504.11Z" fill="#535461"/>
    <path id="Path_18" data-name="Path 18" d="M559.32,346.93l17.31.08v21.34H559.32Z" fill="#535461"/>
    <g id="Group_7" data-name="Group 7" opacity="0.1">
      <path id="Path_19" data-name="Path 19" d="M502.66,337.19c-3.78-7.19-8.12-13.95-12.92-19.06a9.26,9.26,0,0,0-11-2.07,9.83,9.83,0,0,1,2.78,2.07c4.8,5.11,9.13,11.87,12.92,19.06a150.58,150.58,0,0,1,16.91,70V660.86h8.24V407.22a150.58,150.58,0,0,0-16.93-70.03Z" transform="translate(-137.41 -64.95)"/>
    </g>
    <g id="Group_8" data-name="Group 8" opacity="0.1">
      <path id="Path_20" data-name="Path 20" d="M665,337.89c3.78-7.19,8.12-13.95,12.92-19.06a9.8,9.8,0,0,1,3.19-2.28,9.27,9.27,0,0,0-10.6,2.28c-4.8,5.11-9.13,11.87-12.92,19.06a150.579,150.579,0,0,0-16.91,70V661.56h7.42V407.93A150.581,150.581,0,0,1,665,337.89Z" transform="translate(-137.41 -64.95)"/>
    </g>
    <rect id="Rectangle_3" data-name="Rectangle 3" width="23.07" height="62.62" transform="translate(334.37 617.2)" fill="url(#linear-gradient-2)"/>
    <rect id="Rectangle_4" data-name="Rectangle 4" width="23.07" height="62.62" transform="translate(409.35 617.2)" fill="url(#linear-gradient-3)"/>
    <rect id="Rectangle_5" data-name="Rectangle 5" width="23.07" height="62.62" transform="translate(456.32 617.2)" fill="url(#linear-gradient-3)"/>
    <rect id="Rectangle_6" data-name="Rectangle 6" width="23.07" height="62.62" transform="translate(532.13 617.2)" fill="url(#linear-gradient-3)"/>
    <path id="Path_21" data-name="Path 21" d="M589.7,119.56a12.84,12.84,0,0,0-19.65,0c-6.85,7.66-13,17.79-18.44,28.57-16,31.94-24.14,68.19-24.14,104.95V660.17H631.56V251.44c0-35.72-7.77-71-23-102.21C601.35,134.42,594.77,125.22,589.7,119.56Z" transform="translate(-137.41 -64.95)" fill="#eee"/>
    <rect id="Rectangle_7" data-name="Rectangle 7" width="54.31" height="24.89" rx="11" transform="translate(414.23 99.83)" fill="#119bd2"/>
    <g id="Group_9" data-name="Group 9" opacity="0.7">
      <path id="Path_22" data-name="Path 22" d="M822,737.93h0A83,83,0,0,0,657.12,752v1.22h0a76.609,76.609,0,0,0-9.1,1.95,75.84,75.84,0,0,0-142.6-12.91,75,75,0,0,0-20.92-4.78h0a82.38,82.38,0,0,0-5.71-18.85,75.8,75.8,0,0,0-151.12-2A82.451,82.451,0,0,0,320.25,743h0a75.88,75.88,0,0,0-43.49,92H884.34A75.86,75.86,0,0,0,822,737.93Z" transform="translate(-137.41 -64.95)" fill="url(#linear-gradient-6)"/>
    </g>
    <circle id="Ellipse_1" data-name="Ellipse 1" cx="72.83" cy="72.83" r="72.83" transform="translate(199.88 586.52)" fill="url(#linear-gradient-7)"/>
    <circle id="Ellipse_2" data-name="Ellipse 2" cx="79.75" cy="79.75" r="79.75" transform="translate(192.6 606.91)" fill="url(#linear-gradient-7)"/>
    <circle id="Ellipse_3" data-name="Ellipse 3" cx="79.75" cy="79.75" r="79.75" transform="translate(516.7 606.91)" fill="url(#linear-gradient-7)"/>
    <circle id="Ellipse_4" data-name="Ellipse 4" cx="72.83" cy="72.83" r="72.83" transform="translate(519.61 620.75)" fill="url(#linear-gradient-7)"/>
    <path id="Path_23" data-name="Path 23" d="M647.55,772.37a72.7,72.7,0,0,1-30.12,59H532a72.86,72.86,0,1,1,115.54-59Z" transform="translate(-137.41 -64.95)" fill="url(#linear-gradient-11)"/>
    <path id="Path_24" data-name="Path 24" d="M555.06,810.24a72.5,72.5,0,0,1-3.12,21.12H412.51v-.05a72.83,72.83,0,0,1,69.28-93.9h.45q3.06,0,6.07.25a72.072,72.072,0,0,1,20.09,4.59A72.85,72.85,0,0,1,555.06,810.24Z" transform="translate(-137.41 -64.95)" fill="url(#linear-gradient-12)"/>
    <path id="Path_25" data-name="Path 25" d="M737.87,824.81q0,3.27-.29,6.47a.181.181,0,0,1,0,.09H592.5c-.2-2.16-.3-4.35-.3-6.55a72.76,72.76,0,0,1,61.92-72A73.766,73.766,0,0,1,665,752c1.86,0,3.71.07,5.54.2a72.89,72.89,0,0,1,60.9,42.74c.3.66.59,1.33.86,2a72.48,72.48,0,0,1,5.57,27.87Z" transform="translate(-137.41 -64.95)" fill="url(#linear-gradient-13)"/>
    <path id="Path_26" data-name="Path 26" d="M875.52,810.24a72.5,72.5,0,0,1-3.12,21.12H733a73.292,73.292,0,0,1-1.87-34.54c.12-.63.24-1.27.38-1.89a72.86,72.86,0,0,1,71.22-57.51c2.29,0,4.54.1,6.77.32,1,.08,2,.2,3,.33A72.84,72.84,0,0,1,875.52,810.24Z" transform="translate(-137.41 -64.95)" fill="url(#linear-gradient-14)"/>
    <path id="Path_27" data-name="Path 27" d="M428.13,831.37c.24-.76.45-1.52.66-2.29A72.88,72.88,0,0,0,339,740a69.469,69.469,0,0,0-8.51,2.94,72.9,72.9,0,0,0-41.78,88.4H428.13Z" transform="translate(-137.41 -64.95)" fill="url(#linear-gradient-15)"/>
    <g id="Group_10" data-name="Group 10" opacity="0.7">
      <circle id="Ellipse_5" data-name="Ellipse 5" cx="13.36" cy="13.36" r="13.36" transform="translate(697.07 589.91)" fill="url(#linear-gradient)"/>
    </g>
    <circle id="Ellipse_6" data-name="Ellipse 6" cx="12.38" cy="12.38" r="12.38" transform="translate(698.05 590.89)" fill="url(#linear-gradient-7)"/>
    <g id="Group_11" data-name="Group 11" opacity="0.7">
      <circle id="Ellipse_7" data-name="Ellipse 7" cx="14.57" cy="14.57" r="14.57" transform="translate(757.04 717.61)" fill="url(#linear-gradient-18)"/>
    </g>
    <circle id="Ellipse_8" data-name="Ellipse 8" cx="13.84" cy="13.84" r="13.84" transform="translate(757.77 718.34)" fill="url(#linear-gradient-19)"/>
    <g id="Group_12" data-name="Group 12" opacity="0.7">
      <circle id="Ellipse_9" data-name="Ellipse 9" cx="16.01" cy="16.01" r="16.01" transform="translate(132.16 633.14)" fill="url(#linear-gradient)"/>
    </g>
    <circle id="Ellipse_10" data-name="Ellipse 10" cx="15.29" cy="15.29" r="15.29" transform="translate(132.88 633.86)" fill="url(#linear-gradient-21)"/>
    <circle id="Ellipse_11" data-name="Ellipse 11" cx="2.18" cy="2.18" r="2.18" transform="translate(688.95 58.13)" fill="#f55f44" opacity="0.05"/>
    <circle id="Ellipse_13" data-name="Ellipse 13" cx="5.1" cy="5.1" r="5.1" transform="translate(717.71 339.62)" fill="#535461" opacity="0.25"/>
    <circle id="Ellipse_16" data-name="Ellipse 16" cx="5.1" cy="5.1" r="5.1" transform="translate(283.63 260.96)" fill="#535461" opacity="0.25"/>
    <circle id="Ellipse_17" data-name="Ellipse 17" cx="5.1" cy="5.1" r="5.1" transform="translate(266.88 143.7)" fill="#535461" opacity="0.25"/>
    <path id="Path_35" data-name="Path 35" d="M601.55,142.41h-4.54v-4.54h-1.85v4.54h-4.54v1.85h4.54v4.54h1.85v-4.54h4.54Z" fill="#535461" opacity="0.25"/>
    <path id="Path_37" data-name="Path 37" d="M633.59,512.39h-4.53v-4.53h-1.85v4.53h-4.54v1.86h4.54v4.53h1.85v-4.53h4.53Z" fill="#535461" opacity="0.25"/>
    <path id="Path_40" data-name="Path 40" d="M231.56,446.12h-4.54v-4.54h-1.85v4.54h-4.53v1.85h4.53v4.54h1.85v-4.54h4.54Z" fill="#535461" opacity="0.25"/>
    <circle id="Ellipse_19" data-name="Ellipse 19" cx="13.84" cy="13.84" r="13.84" transform="translate(757.77 718.34)" fill="url(#linear-gradient-7)"/>
    <g id="Group_14" data-name="Group 14" opacity="0.4">
      <path id="Path_41" data-name="Path 41" d="M406.37,413.27h0a21.109,21.109,0,0,0-6.23-5.52h0a20.92,20.92,0,1,0-10.46,39H391a20.92,20.92,0,0,0,15.37-33.47Z" transform="translate(-137.41 -64.95)" fill="url(#linear-gradient-23)"/>
    </g>
    <path id="Path_42" data-name="Path 42" d="M409.44,425.87a19.77,19.77,0,0,1-18.52,19.73h-1.25a19.77,19.77,0,1,1,9.89-36.9h0a20,20,0,0,1,5.89,5.21h0a19.67,19.67,0,0,1,3.99,11.96Z" transform="translate(-137.41 -64.95)" fill="#6c63ff" opacity="0.2"/>
    <path id="Path_43" data-name="Path 43" d="M384.8,413.33a21.518,21.518,0,0,0-3,1.55,4.67,4.67,0,0,0-1.58,1.41,1.86,1.86,0,0,0,0,2,2.83,2.83,0,0,0,2.22.8,4.22,4.22,0,0,0,4-1.33l1.7-1.54c.59-.54,1.24-1.27,1-2a1.79,1.79,0,0,0-1.44-1,6,6,0,0,0-4.25.75" transform="translate(-137.41 -64.95)" fill="#f55f44" opacity="0.1"/>
    <circle id="Ellipse_20" data-name="Ellipse 20" cx="1.04" cy="1.04" r="1.04" transform="translate(239.25 367.68)" fill="#f55f44" opacity="0.1"/>
    <circle id="Ellipse_21" data-name="Ellipse 21" cx="3.82" cy="3.82" r="3.82" transform="translate(257.63 358.31)" fill="#f55f44" opacity="0.1"/>
    <path id="Path_44" data-name="Path 44" d="M405.45,414h0a5.2,5.2,0,1,1-5.89-5.22h0a20,20,0,0,1,5.89,5.22Z" transform="translate(-137.41 -64.95)" fill="#f55f44" opacity="0.1"/>
    <path id="Path_45" data-name="Path 45" d="M405.84,437.26a19.72,19.72,0,0,1-14.91,8.35c0-.27,0-.55,0-.83a9.37,9.37,0,0,1,15-7.52Z" transform="translate(-137.41 -64.95)" fill="#f55f44" opacity="0.1"/>
    <g id="Group_15" data-name="Group 15" opacity="0.1">
      <rect id="Rectangle_8" data-name="Rectangle 8" width="103" height="4" transform="translate(390.59 202.05)"/>
    </g>
  </g>
</svg>
