<svg xmlns="http://www.w3.org/2000/svg" width="385.227" height="53.751" viewBox="0 0 385.227 53.751">
  <path id="Path_1" data-name="Path 1" d="M16.284-40.71H.276V-48.3H41.262v7.59H25.254V0h-8.97Zm46.644,3.45q6.969,0,11.178,4.071t4.209,12.075V0H69.69V-20.01q0-4.83-2.277-7.279a8.419,8.419,0,0,0-6.486-2.45,9.957,9.957,0,0,0-7.521,2.864q-2.76,2.864-2.76,8.246V0H42.021V-51.2h8.625v18.63a14.03,14.03,0,0,1,5.278-3.485A19.373,19.373,0,0,1,62.928-37.26Zm56.166,19.044q0,.9-.138,2.553H90.045a10.021,10.021,0,0,0,3.967,6.451,13,13,0,0,0,7.97,2.381,13.43,13.43,0,0,0,10-4L116.61-5.52a15.576,15.576,0,0,1-6.279,4.485A22.87,22.87,0,0,1,101.775.483a22.771,22.771,0,0,1-10.7-2.415A17.393,17.393,0,0,1,83.939-8.66a19,19,0,0,1-2.519-9.764,19.28,19.28,0,0,1,2.45-9.694,17.376,17.376,0,0,1,6.8-6.727,19.83,19.83,0,0,1,9.8-2.415,19.332,19.332,0,0,1,9.626,2.381,16.859,16.859,0,0,1,6.624,6.693A20.3,20.3,0,0,1,119.094-18.216ZM100.464-30.36a10.4,10.4,0,0,0-7,2.45,10.3,10.3,0,0,0-3.484,6.521h20.907a10.168,10.168,0,0,0-3.381-6.486A10.282,10.282,0,0,0,100.464-30.36Zm68.241-6.9q6.969,0,11.04,4.036t4.071,12.11V0h-8.625V-20.01q0-4.83-2.139-7.279a7.715,7.715,0,0,0-6.141-2.45,8.994,8.994,0,0,0-6.969,2.864q-2.622,2.864-2.622,8.177V0H148.7V-20.01q0-4.83-2.139-7.279a7.715,7.715,0,0,0-6.141-2.45,9.023,9.023,0,0,0-7,2.829q-2.587,2.829-2.587,8.211V0H122.2V-36.846h8.211v4.692a13.41,13.41,0,0,1,5.175-3.795,17.57,17.57,0,0,1,6.9-1.311,16.669,16.669,0,0,1,7.348,1.552,11.928,11.928,0,0,1,5.072,4.589,15.356,15.356,0,0,1,5.865-4.519A19.047,19.047,0,0,1,168.705-37.26Zm55.959,19.044q0,.9-.138,2.553H195.615a10.021,10.021,0,0,0,3.967,6.451,13,13,0,0,0,7.97,2.381,13.43,13.43,0,0,0,10.005-4L222.18-5.52A15.576,15.576,0,0,1,215.9-1.035,22.87,22.87,0,0,1,207.345.483a22.771,22.771,0,0,1-10.7-2.415,17.393,17.393,0,0,1-7.141-6.728,19,19,0,0,1-2.519-9.764,19.28,19.28,0,0,1,2.45-9.694,17.375,17.375,0,0,1,6.8-6.727,19.83,19.83,0,0,1,9.8-2.415,19.332,19.332,0,0,1,9.626,2.381,16.859,16.859,0,0,1,6.624,6.693A20.3,20.3,0,0,1,224.664-18.216ZM206.034-30.36a10.4,10.4,0,0,0-7,2.45,10.3,10.3,0,0,0-3.485,6.521h20.907a10.168,10.168,0,0,0-3.381-6.486A10.282,10.282,0,0,0,206.034-30.36ZM297.8-48.3,281.8,0h-9.522L260.337-35.742,248.193,0H238.6L222.594-48.3h9.315l12.006,36.708L256.4-48.3h8.28L276.9-11.385,289.248-48.3Zm12.627,11.04q8.142,0,12.454,3.9T327.2-21.6V0h-8.142V-4.485a10.035,10.035,0,0,1-4.52,3.692A17.667,17.667,0,0,1,307.464.483a17.328,17.328,0,0,1-7.245-1.415,11.194,11.194,0,0,1-4.8-3.933,9.981,9.981,0,0,1-1.69-5.693,9.756,9.756,0,0,1,3.691-7.969q3.691-3,11.626-3h9.522v-.552a7.552,7.552,0,0,0-2.311-5.934q-2.312-2.07-6.866-2.07a19.817,19.817,0,0,0-6.107.966,15,15,0,0,0-5.072,2.691l-3.381-6.279a20.935,20.935,0,0,1,6.969-3.381A31.008,31.008,0,0,1,310.431-37.26ZM309.258-5.8A11.137,11.137,0,0,0,315.02-7.28a8.072,8.072,0,0,0,3.553-4.244V-15.8h-8.9q-7.452,0-7.452,4.9a4.4,4.4,0,0,0,1.863,3.726A8.541,8.541,0,0,0,309.258-5.8Zm60.237-45.4V0h-8.28V-4.761a13.344,13.344,0,0,1-5.279,3.933A17.824,17.824,0,0,1,349,.483a19.417,19.417,0,0,1-9.557-2.346,16.857,16.857,0,0,1-6.659-6.659,19.919,19.919,0,0,1-2.415-9.9,19.725,19.725,0,0,1,2.415-9.867,16.918,16.918,0,0,1,6.659-6.624A19.417,19.417,0,0,1,349-37.26a17.516,17.516,0,0,1,6.693,1.242,13.463,13.463,0,0,1,5.175,3.726V-51.2ZM350.037-6.9a11.093,11.093,0,0,0,5.589-1.415,10.223,10.223,0,0,0,3.933-4.036,12.349,12.349,0,0,0,1.449-6.072,12.349,12.349,0,0,0-1.449-6.072,10.223,10.223,0,0,0-3.933-4.036,11.093,11.093,0,0,0-5.589-1.415,11.093,11.093,0,0,0-5.589,1.415,10.222,10.222,0,0,0-3.933,4.036,12.349,12.349,0,0,0-1.449,6.072,12.349,12.349,0,0,0,1.449,6.072,10.222,10.222,0,0,0,3.933,4.036A11.093,11.093,0,0,0,350.037-6.9Zm25.6-29.946h8.625V0h-8.625Zm4.347-6.072A5.54,5.54,0,0,1,376.05-44.4a4.846,4.846,0,0,1-1.587-3.692,4.846,4.846,0,0,1,1.587-3.691,5.54,5.54,0,0,1,3.933-1.484,5.7,5.7,0,0,1,3.933,1.415A4.559,4.559,0,0,1,385.5-48.3a5.2,5.2,0,0,1-1.552,3.83A5.373,5.373,0,0,1,379.983-42.918Z" transform="translate(-0.276 53.268)" fill="#fe6e9a"/>
</svg>
